{"title":"X.Men.First.Class.2011.R5.x264-SH4RK","uid":6525773,"size":504311222,"categoryP":"video","categoryS":"movies","magnet":"?xt=urn:btih:6efde33267a7f2b852dcd98e3d56407c10d27ac2&amp;dn=X.Men.First.Class.2011.R5.x264-SH4RK&amp;tr=udp%3A%2F%2Ftracker.openbittorrent.com%3A80&amp;tr=udp%3A%2F%2Fopen.demonii.com%3A1337&amp;tr=udp%3A%2F%2Ftracker.coppersurfer.tk%3A6969&amp;tr=udp%3A%2F%2Fexodus.desync.com%3A6969","seeders":0,"leechers":0,"uploader":"wiiron","files":1,"time":1310153250,"description":"X.Men.First.Class.2011.R5.x264-SH4RK.mp4\n    Format : MPEG-4\n    Format profile : Base Media\n    Codec ID : isom\n    File size : 481 MiB\n    Duration : 2h 9mn\n    Overall bit rate : 517 Kbps\n    Encoded date : UTC 2011-07-07 17:09:25\n    Tagged date : UTC 2011-07-07 17:09:25\n  Video #1\n    ID : 1\n    Format : AVC\n    Format/Info : Advanced Video Codec\n    Format profile : &lt;a class=&quot;__cf_email__&quot; href=&quot;/cdn-cgi/l/email-protection&quot; data-cfemail=&quot;0d406c64634d4139233d&quot;&gt;[email&amp;#160;protected]&lt;/a&gt;&lt;script cf-hash='f9e31' type=&quot;text/javascript&quot;&gt;\n/* &lt;![CDATA[ */!function(){try{var t=&quot;currentScript&quot;in document?document.currentScript:function(){for(var t=document.getElementsByTagName(&quot;script&quot;),e=t.length;e--;)if(t[e].getAttribute(&quot;cf-hash&quot;))return t[e]}();if(t&amp;&amp;t.previousSibling){var e,r,n,i,c=t.previousSibling,a=c.getAttribute(&quot;data-cfemail&quot;);if(a){for(e=&quot;&quot;,r=parseInt(a.substr(0,2),16),n=2;a.length-n;n+=2)i=parseInt(a.substr(n,2),16)^r,e+=String.fromCharCode(i);e=document.createTextNode(e),c.parentNode.replaceChild(e,c)}}}catch(u){}}();/* ]]&gt; */&lt;/script&gt;\n    Format settings, CABAC : Yes\n    Format settings, ReFrames : 2 frames\n    Codec ID : avc1\n    Codec ID/Info : Advanced Video Coding\n    Duration : 2h 9mn\n    Bit rate mode : Variable\n    Bit rate : 398 Kbps\n    Nominal bit rate : 400 Kbps\n    Maximum bit rate : 1 580 Kbps\n    Width : 640 pixels\n    Height : 272 pixels\n    Display aspect ratio : 2.35:1\n    Frame rate mode : Constant\n    Frame rate : 25.000 fps\n    Resolution : 24 bits\n    Colorimetry : 4:2:0\n    Scan type : Progressive\n    Bits/(Pixel*Frame) : 0.091\n    Stream size : 370 MiB (77%)\n    Writing library : x264 core 64\n  Audio #2\n    ID : 2\n    Format : MPEG Audio\n    Format version : Version 1\n    Format profile : Layer 3\n    Codec ID : 6B\n    Duration : 2h 2mn\n    Bit rate mode : Variable\n    Bit rate : 123 Kbps\n    Minimum bit rate : 32.0 Kbps\n    Maximum bit rate : 174 Kbps\n    Channel(s) : 2 channels\n    Sampling rate : 44.1 KHz\n    Resolution : 16 bits\n    Stream size : 108 MiB (22%)\n    Writing library : LAME3.98 \n    Encoding settings : -m j -V 6 -q 0 -lowpass 15.5 --vbr-new -b 32\n    Encoded date : UTC 2011-07-07 17:10:02\n    Tagged date : UTC 2011-07-07 17:10:24","torrent":{"xt":"urn:btih:6efde33267a7f2b852dcd98e3d56407c10d27ac2","amp;dn":"X.Men.First.Class.2011.R5.x264-SH4RK","amp;tr":["udp%3A%2F%2Ftracker.openbittorrent.com%3A80","udp%3A%2F%2Fopen.demonii.com%3A1337","udp%3A%2F%2Ftracker.coppersurfer.tk%3A6969","udp%3A%2F%2Fexodus.desync.com%3A6969"],"infoHash":"6efde33267a7f2b852dcd98e3d56407c10d27ac2","infoHashBuffer":{"type":"Buffer","data":[110,253,227,50,103,167,242,184,82,220,217,142,61,86,64,124,16,210,122,194]},"announce":[],"urlList":[]}}